#N canvas 0 22 540 392 10;
#X obj 196 231 LGMLdrywet;
#X obj 196 77 adc~ 1;
#X obj 196 262 dac~ 1;
#N canvas 425 120 450 300 gui 1;
#X obj 102 56 hsl 128 15 0 1 0 1 drywet empty drywet -2 -8 0 10 -262144
-1 -1 12700 1;
#X obj 103 97 hsl 128 15 0 1 0 0 clip empty clip -2 -8 0 10 -262144
-1 -1 12700 1;
#X restore 55 58 pd gui;
#X obj 336 225 r drywet;
#X obj 224 105 hip~ 5;
#X obj 224 134 clip~ -1 1, f 17;
#X obj 273 103 * -1;
#X obj 224 194 *~ 1;
#X obj 344 69 s sclip;
#X obj 269 37 r sclip;
#X obj 278 154 r sclip, f 15;
#X obj 346 24 r clip;
#X obj 413 94 print t;
#X obj 430 180 print gain;
#X obj 346 50 pow 2;
#X obj 278 174 expr 1/($f1);
#X connect 0 0 2 0;
#X connect 1 0 0 0;
#X connect 1 0 5 0;
#X connect 4 0 0 2;
#X connect 5 0 6 0;
#X connect 6 0 8 0;
#X connect 7 0 6 1;
#X connect 8 0 0 1;
#X connect 10 0 6 2;
#X connect 10 0 7 0;
#X connect 11 0 16 0;
#X connect 12 0 15 0;
#X connect 15 0 9 0;
#X connect 15 0 13 0;
#X connect 16 0 8 1;
#X connect 16 0 14 0;
