#N canvas 0 22 450 300 10;
#X obj 252 86 inlet~;
#X obj 152 82 inlet~;
#X obj 167 216 outlet~;
#X obj 257 4 inlet;
#X obj 275 36 sqrt;
#X obj 202 33 * -1;
#X obj 203 69 sqrt;
#X obj 202 51 + 1;
#X obj 150 172 *~ 0;
#X obj 253 175 *~ 1;
#X obj 192 161 == \$1;
#X obj 191 124 loadbang;
#X obj 289 120 loadbang;
#X obj 290 140 0;
#X obj 192 144 1;
#X obj 291 159 == \$1;
#X connect 0 0 9 0;
#X connect 1 0 8 0;
#X connect 3 0 4 0;
#X connect 3 0 5 0;
#X connect 4 0 9 1;
#X connect 5 0 7 0;
#X connect 6 0 8 1;
#X connect 7 0 6 0;
#X connect 8 0 2 0;
#X connect 9 0 2 0;
#X connect 10 0 8 1;
#X connect 11 0 14 0;
#X connect 12 0 13 0;
#X connect 13 0 15 0;
#X connect 14 0 10 0;
#X connect 15 0 9 1;
