#N canvas 0 22 931 486 10;
#X obj 279 317 bob~;
#X obj 408 215 / 25;
#X msg 950 229 print;
#X obj 292 246 pack 0 50;
#X obj 292 271 line~;
#X msg 886 227 clear;
#X floatatom 294 228 7 0 0 0 - - -, f 7;
#X floatatom 611 177 5 0 999 0 - - -, f 5;
#X msg 611 223 saturation \$1;
#X obj 611 199 / 100;
#X text 885 183 clear or print;
#X text 889 202 filter state;
#X floatatom 748 197 5 1 10 0 - - -, f 5;
#X text 744 122 oversampling;
#X msg 748 224 oversample \$1;
#X text 419 88 "resonance";
#X text 418 105 (>4 to oscillate);
#X obj 748 145 loadbang;
#X msg 748 170 2;
#X text 456 211 scaled to 0-8;
#X text 455 193 0-200 control;
#X text 263 86 resonant or cutoff frequency, f 16;
#X text 300 60 ----- filter parameters ----;
#X text 609 59 ------ optimizations / setup params -------;
#X text 899 161 debugging:;
#X text 603 88 saturation point;
#X text 600 105 of "transistors";
#X msg 611 152 300;
#X obj 407 243 line~;
#N canvas 745 156 450 300 gui 1;
#X obj 19 22 hsl 128 15 0 1 0 0 cutoff empty cutoff -2 -8 0 10 -262144
-1 -1 400 1;
#X obj 19 98 hsl 128 15 0 1 0 0 resonance empty resonance -2 -8 0 10
-262144 -1 -1 0 1;
#X obj 19 142 hsl 128 15 0 1 0 0 transistor empty transistor -2 -8
0 10 -262144 -1 -1 0 1;
#X restore 80 107 pd gui;
#X obj 227 157 r cutoff;
#X obj 404 168 r resonance;
#X obj 405 189 * 200;
#X obj 525 145 r transistor;
#X obj 531 166 * 1000;
#X obj 235 273 adc~;
#X obj 280 349 dac~;
#X obj 173 196 expr 22*pow(10 \, $f1*3);
#X connect 0 0 36 0;
#X connect 1 0 28 0;
#X connect 2 0 0 0;
#X connect 3 0 4 0;
#X connect 4 0 0 1;
#X connect 5 0 0 0;
#X connect 6 0 3 0;
#X connect 7 0 9 0;
#X connect 8 0 0 0;
#X connect 9 0 8 0;
#X connect 12 0 14 0;
#X connect 14 0 0 0;
#X connect 17 0 18 0;
#X connect 18 0 12 0;
#X connect 27 0 7 0;
#X connect 28 0 0 2;
#X connect 30 0 37 0;
#X connect 31 0 32 0;
#X connect 32 0 1 0;
#X connect 33 0 34 0;
#X connect 34 0 9 0;
#X connect 35 0 0 0;
#X connect 37 0 6 0;
