#N canvas 276 133 882 519 10;
#X obj 124 -36 adc~;
#X obj 69 436 dac~;
#N canvas 0 22 450 300 gui 1;
#X obj 39 36 hsl 128 15 0 1 0 1 drywet empty drywet -2 -8 0 10 -262144
-1 -1 12700 1;
#X obj 38 67 hsl 128 15 0 1 0 1 subsub2 empty subsub2 -2 -8 0 10 -262144
-1 -1 0 1;
#X obj 37 102 hsl 128 15 0 1024 0 1 window empty window -2 -8 0 10
-262144 -1 -1 800 1;
#X obj 37 147 hsl 128 15 0 1 0 1 sub5 empty sub5 -2 -8 0 10 -262144
-1 -1 5800 1;
#X obj 36 193 hsl 128 15 0 1 0 1 postchorus empty postchorus -2 -8
0 10 -262144 -1 -1 5800 1;
#X obj 35 233 hsl 128 15 0 7 0 1 postchorusDetune empty postchorusDetune
-2 -8 0 10 -262144 -1 -1 300 1;
#X restore 18 23 pd gui;
#X obj 715 232 r sub2;
#N canvas 139 143 675 433 constsum 0;
#X obj 252 86 inlet~;
#X obj 140 85 inlet~;
#X obj 167 216 outlet~;
#X obj 340 -3 inlet;
#X obj 252 139 *~ 1;
#X obj 149 136 *~ 0;
#X obj 470 -11 inlet;
#X obj 338 56 expr $f1/($f1 + $f2);
#X obj 421 37 t b f;
#X obj 470 58 expr $f1/($f1 + $f2);
#X obj 553 39 t b f;
#X obj 341 105 sqrt;
#X obj 461 101 sqrt;
#X obj 328 237 hsl 128 15 0 1 0 0 empty empty empty -2 -8 0 10 -262144
-1 -1 0 1;
#X obj 365 277 hsl 128 15 0 1 0 0 empty empty empty -2 -8 0 10 -262144
-1 -1 0 1;
#X connect 0 0 4 0;
#X connect 1 0 5 0;
#X connect 3 0 7 0;
#X connect 3 0 10 0;
#X connect 4 0 2 0;
#X connect 5 0 2 0;
#X connect 6 0 8 0;
#X connect 6 0 9 0;
#X connect 7 0 11 0;
#X connect 7 0 13 0;
#X connect 8 0 7 0;
#X connect 8 1 7 1;
#X connect 9 0 12 0;
#X connect 9 0 14 0;
#X connect 10 0 9 0;
#X connect 10 1 9 1;
#X connect 11 0 5 1;
#X connect 12 0 4 1;
#X restore 624 258 pd constsum;
#X obj 158 349 r drywet;
#X obj 671 229 r sub;
#X obj 188 286 r subsub2;
#N canvas 0 22 450 300 thru 0;
#X obj 229 46 inlet~;
#X obj 221 88 outlet~;
#X connect 0 0 1 0;
#X restore 107 131 pd thru;
#N canvas 0 22 450 300 thru 0;
#X obj 229 46 inlet~;
#X obj 221 88 outlet~;
#X connect 0 0 1 0;
#X restore 26 167 pd thru;
#X obj 205 153 r sub5;
#X obj 109 314 LGMLDryWet;
#X obj 107 168 LGMLDryWet;
#X obj 79 377 LGMLDryWet;
#X obj 105 243 LGMLPS -12;
#X obj 167 245 LGMLPS -24;
#X obj 156 132 r window;
#X obj 205 224 r window;
#X obj 142 222 r window;
#X obj 126 150 LGMLPS 7;
#N canvas 0 22 450 300 thru 0;
#X obj 229 46 inlet~;
#X obj 221 88 outlet~;
#X connect 0 0 1 0;
#X restore 153 395 pd thru;
#X obj 153 432 LGMLDryWet;
#X obj 202 396 r window;
#X obj 265 426 / 2;
#X obj 172 414 LGMLPS 0.3;
#X obj 266 397 r postchorus;
#X obj 191 371 r postchorusDetune;
#X connect 0 0 8 0;
#X connect 3 0 4 3;
#X connect 5 0 13 2;
#X connect 6 0 4 2;
#X connect 7 0 11 2;
#X connect 8 0 12 0;
#X connect 8 0 9 0;
#X connect 8 0 19 0;
#X connect 9 0 13 0;
#X connect 10 0 12 2;
#X connect 11 0 13 1;
#X connect 12 0 14 0;
#X connect 12 0 15 0;
#X connect 13 0 20 0;
#X connect 14 0 11 0;
#X connect 15 0 11 1;
#X connect 16 0 19 2;
#X connect 17 0 15 2;
#X connect 18 0 14 2;
#X connect 19 0 12 1;
#X connect 20 0 21 0;
#X connect 20 0 24 0;
#X connect 21 0 1 0;
#X connect 22 0 24 2;
#X connect 23 0 21 2;
#X connect 24 0 21 1;
#X connect 25 0 23 0;
#X connect 26 0 24 1;
