#N canvas 306 78 848 343 10;
#N canvas 160 204 450 300 low 0;
#X obj 93 40 inlet~;
#X obj 93 97 outlet~;
#X obj 201 61 block~ 1024 1 2;
#X obj 97 185 fft~;
#X connect 0 0 1 0;
#X restore 368 173 pd low;
#X obj 136 34 adc~;
#X obj 196 267 dac~;
#N canvas 0 22 450 300 player 0;
#N canvas 0 22 450 278 (subpatch) 0;
#X array sample_array 730227 float 2;
#X coords 0 1 730227 -1 200 140 1 0 0;
#X restore 250 163 graph;
#X obj 186 93 soundfiler;
#X obj 86 235 tabplay~ sample_array;
#X obj 72 161 tgl 15 0 empty empty empty 17 7 0 10 -262144 -1 -1 1
1;
#X obj 81 188 sel 1 0;
#X obj 60 217 bng 15 250 50 0 empty empty empty 17 7 0 10 -262144 -1
-1;
#X msg 114 214 stop;
#X obj 89 269 outlet~;
#X obj 61 90 inlet;
#X obj 208 20 inlet;
#X msg 217 69 read -resize \$1 sample_array;
#X obj 300 113 print;
#X obj 222 46 symbol;
#X obj 102 119 route loop;
#X obj 171 174 spigot;
#X obj 199 148 tgl 15 0 empty empty empty 17 7 0 10 -262144 -1 -1 1
1;
#X connect 2 0 7 0;
#X connect 2 1 14 0;
#X connect 3 0 4 0;
#X connect 4 0 5 0;
#X connect 4 1 6 0;
#X connect 5 0 2 0;
#X connect 6 0 2 0;
#X connect 8 0 13 0;
#X connect 9 0 12 0;
#X connect 10 0 1 0;
#X connect 10 0 11 0;
#X connect 12 0 10 0;
#X connect 13 0 15 0;
#X connect 13 1 3 0;
#X connect 14 0 5 0;
#X connect 15 0 14 1;
#X restore 355 97 pd player;
#X obj 349 69 tgl 15 0 empty empty empty 17 7 0 10 -262144 -1 -1 1
1;
#X msg 530 78 /Users/Tintamar/Google_Drive/session_Anger/sounds/drums.aif
;
#X msg 480 27 FemVoice.aif;
#N canvas 311 75 634 550 low2 1;
#X obj 273 125 inlet~;
#X obj 226 478 outlet~;
#N canvas 0 22 450 300 params 0;
#X msg 441 458 print;
#X msg 445 116 amp-range 40 50;
#X msg 443 236 reattack 100 10;
#X msg 442 291 npartial 7;
#X msg 442 179 vibrato 50 0.5;
#X msg 444 340 auto 1;
#X msg 444 362 auto 0;
#X msg 443 427 bang;
#X msg 444 384 npoints 2048;
#X msg 443 405 npoints 1024;
#X obj 414 554 outlet;
#X connect 0 0 10 0;
#X connect 1 0 10 0;
#X connect 2 0 10 0;
#X connect 3 0 10 0;
#X connect 4 0 10 0;
#X connect 5 0 10 0;
#X connect 6 0 10 0;
#X connect 7 0 10 0;
#X connect 8 0 10 0;
#X connect 9 0 10 0;
#X restore 344 118 pd params;
#X obj 281 155 fiddle~ 1024 1 20 3;
#X obj 416 180 print p;
#X obj 336 178 unpack;
#X obj 335 197 moses 1;
#X obj 337 220 mtof;
#X obj 334 245 * 1;
#X msg 472 224 0.5;
#N canvas 0 22 450 300 delay 0;
#X obj 162 149 inlet~;
#X obj 160 221 outlet~;
#X connect 0 0 1 0;
#X restore 206 176 pd delay;
#X obj 209 410 *~ 1;
#X obj 255 408 *~;
#N canvas 0 22 450 300 drywet 0;
#X obj 252 86 inlet~;
#X obj 140 85 inlet~;
#X obj 167 216 outlet~;
#X obj 370 -2 inlet;
#X obj 252 139 *~ 1;
#X obj 149 136 *~ 0;
#X obj 193 62 sqrt;
#X obj 321 42 * -1;
#X obj 322 78 sqrt;
#X obj 321 60 + 1;
#X connect 0 0 4 0;
#X connect 1 0 5 0;
#X connect 3 0 6 0;
#X connect 3 0 7 0;
#X connect 4 0 2 0;
#X connect 5 0 2 0;
#X connect 6 0 5 1;
#X connect 7 0 9 0;
#X connect 8 0 4 1;
#X connect 9 0 8 0;
#X restore 216 444 pd drywet;
#X obj 336 430 hsl 128 15 0 1 0 0 empty empty empty -2 -8 0 10 -262144
-1 -1 0 1;
#X msg 501 227 0.25;
#X msg 391 218 8;
#X msg 430 222 1;
#X obj 314 269 phasor~;
#X obj 323 339 lop~ 1000;
#X msg 528 306;
#X floatatom 405 313 5 0 0 0 - - -, f 5;
#X obj 337 308 spigot~;
#X connect 0 0 3 0;
#X connect 0 0 10 0;
#X connect 2 0 3 0;
#X connect 3 2 5 0;
#X connect 5 0 6 0;
#X connect 6 1 7 0;
#X connect 7 0 8 0;
#X connect 8 0 18 0;
#X connect 9 0 8 1;
#X connect 10 0 12 0;
#X connect 10 0 11 0;
#X connect 11 0 13 0;
#X connect 12 0 13 1;
#X connect 13 0 1 0;
#X connect 14 0 13 2;
#X connect 15 0 8 1;
#X connect 16 0 8 1;
#X connect 17 0 8 1;
#X connect 18 0 19 0;
#X connect 19 0 12 1;
#X connect 21 0 19 1;
#X restore 370 199 pd low2;
#X obj 353 29 tgl 15 0 empty empty empty 17 7 0 10 -262144 -1 -1 1
1;
#X msg 380 53 loop \$1;
#N canvas 230 119 450 300 defaultPS 1;
#X floatatom 19 87 0 0 0 0 - - -;
#X obj 82 358 *~;
#X obj 205 295 line~;
#X floatatom 237 112 0 0 0 0 - - -;
#X text 68 9 PITCH SHIFTER;
#X obj 205 269 pack 0 200;
#X obj 237 86 r window;
#X obj 19 61 r transpose;
#X obj 19 143 exp;
#X floatatom 19 169 6 0 0 0 - - -, f 6;
#X obj 19 259 /;
#X obj 146 189 * 0.001;
#X obj 314 365 line~;
#X obj 314 340 pack 0 200;
#X floatatom 314 289 0 0 0 0 - - -;
#X obj 314 263 r delay;
#X obj 82 384 +~;
#X obj 19 410 cos~;
#X obj 19 437 *~;
#X obj 19 466 +~;
#X obj 106 317 wrap~;
#X obj 251 360 *~;
#X obj 251 393 +~;
#X obj 188 420 cos~;
#X obj 188 447 *~;
#X msg 492 56 \; transpose 0 \; window 100 \; delay 0;
#X obj 492 30 loadbang;
#X obj 146 216 t b f;
#X floatatom 19 285 6 0 0 0 - - -, f 6;
#X obj 106 290 +~ 0.5;
#X obj 19 358 -~ 0.5;
#X obj 19 384 *~ 0.5;
#X obj 188 359 -~ 0.5;
#X obj 188 392 *~ 0.5;
#X obj 19 196 - 1;
#X obj 19 117 * 0.05776;
#X obj 19 222 * -1;
#X text 53 86 <-- transposition;
#X text 96 99 (halftones);
#X text 82 163 speed;
#X text 81 177 change;
#X text 281 111 <--window (msec);
#X text 54 252 tape head;
#X text 425 153 This is a classic rotating-tape-head style pitch shifter
using the vd~ variable delay object. Ther are two moving tape heads
\, each of which is loudest at the middle of its trajectory \, and
enveloped out at the moment it has to jump back (or forward) to start
another scratch. Most of the brain work is in computing how fast the
tape heads have to move to get the desired transposition.;
#X text 425 272 The "window size" is the total trajectory of the read
points in the delay line \, in milliseconds. The delay times are controlled
by a phasor~ object. The second delay time \, 180 degrees out of phase
from the first one \, is computed using the "wrap" object.;
#X text 423 362 The "window size" is the total trajectory of the read
points in the delay line \, in milliseconds. The delay times are controlled
by a phasor~ object. The second delay time \, 180 degrees out of phase
from the first one \, is computed using the "wrap" object.;
#X text 422 454 The cos~ objects compute the fadein and fadeout of
the two delay line outputs. They each traverse the positive half of
the cosine waveform (phase -0.25 to +0.25) over the time the phase
goes from one end to the other.;
#X obj 19 316 phasor~;
#X text 689 534 updated for Pd version 0.37-1;
#X obj 314 316 max 1.5;
#X text 317 222 delay;
#X text 314 240 (msec);
#X obj 237 139 max 1;
#X text 55 265 rotation freq;
#X obj 82 410 vd~ G09-del;
#X obj 251 422 vd~ G09-del;
#X obj 264 42 delwrite~ G09-del 5000;
#X obj 264 11 inlet~;
#X obj 19 493 outlet~;
#X connect 0 0 35 0;
#X connect 1 0 16 0;
#X connect 2 0 1 1;
#X connect 2 0 21 1;
#X connect 3 0 52 0;
#X connect 5 0 2 0;
#X connect 6 0 3 0;
#X connect 7 0 0 0;
#X connect 8 0 9 0;
#X connect 9 0 34 0;
#X connect 10 0 28 0;
#X connect 11 0 27 0;
#X connect 12 0 16 1;
#X connect 12 0 22 1;
#X connect 13 0 12 0;
#X connect 14 0 49 0;
#X connect 15 0 14 0;
#X connect 16 0 54 0;
#X connect 17 0 18 0;
#X connect 18 0 19 0;
#X connect 19 0 58 0;
#X connect 20 0 21 0;
#X connect 20 0 32 0;
#X connect 21 0 22 0;
#X connect 22 0 55 0;
#X connect 23 0 24 0;
#X connect 24 0 19 1;
#X connect 26 0 25 0;
#X connect 27 0 10 0;
#X connect 27 1 10 1;
#X connect 28 0 47 0;
#X connect 29 0 20 0;
#X connect 30 0 31 0;
#X connect 31 0 17 0;
#X connect 32 0 33 0;
#X connect 33 0 23 0;
#X connect 34 0 36 0;
#X connect 35 0 8 0;
#X connect 36 0 10 0;
#X connect 47 0 1 0;
#X connect 47 0 30 0;
#X connect 47 0 29 0;
#X connect 49 0 13 0;
#X connect 52 0 11 0;
#X connect 52 0 5 0;
#X connect 54 0 18 1;
#X connect 55 0 24 1;
#X connect 57 0 56 0;
#X restore 95 208 pd defaultPS;
#N canvas 0 22 450 300 gui 1;
#X obj 31 50 hsl 128 15 0 1024 0 0 window empty empty -2 -8 0 10 -262144
-1 -1 3800 1;
#X obj 35 18 hsl 128 15 -48 48 0 0 transpose empty empty -2 -8 0 10
-262144 -1 -1 3700 1;
#X restore 18 23 pd gui;
#X connect 0 0 2 0;
#X connect 1 0 10 0;
#X connect 3 0 10 0;
#X connect 4 0 3 0;
#X connect 5 0 3 1;
#X connect 6 0 3 1;
#X connect 7 0 2 0;
#X connect 8 0 9 0;
#X connect 9 0 3 0;
#X connect 10 0 2 0;
