#N canvas 390 121 794 595 12;
#X obj 277 289 +~;
#X obj 350 283 +~;
#X obj 274 378 +~;
#X obj 383 379 +~;
#X obj 316 378 -~;
#X obj 423 378 -~;
#X obj 273 434 +~;
#X obj 317 435 +~;
#X obj 361 436 -~;
#X obj 400 436 -~;
#X obj 360 518 *~ 0;
#X obj 318 517 *~ 0;
#X obj 273 516 *~ 0;
#X obj 401 519 *~ 0;
#X obj 668 481 / 200;
#X obj 668 433 min 100;
#X obj 668 456 max 0;
#X obj 274 627 delwrite~ loop-del1 60;
#X obj 319 605 delwrite~ loop-del2 71.9345;
#X obj 400 559 delwrite~ loop-del4 95.945;
#X obj 334 198 delread~ loop-del1 60;
#X obj 376 223 delread~ loop-del2 71.9345;
#X obj 444 277 delread~ loop-del4 95.945;
#X obj 422 252 delread~ loop-del3 86.7545;
#X obj 361 582 delwrite~ loop-del3 86.7545;
#X text 456 357 Do a power-conserving mix of them in pairs. First combine
(1 \, 2) and (3 \, 4)...;
#X text 438 429 ...then (1 \, 3) and (2 \, 4);
#X text 482 513 The two mixing stages have a combined gain of 2 \,
so the recirculation gain is limited to 0.5.;
#X text 622 586 Put the signals back into the;
#X text 620 601 recirculating delays.;
#X text 810 436 0 to 100 to control reverb;
#X text 821 451 time.;
#X text 793 419 feedback gain on a scale of;
#X obj 94 47 LGMLreverb-echo echo-del1 5.43216;
#X obj 94 71 LGMLreverb-echo echo-del2 8.45346;
#X obj 94 95 LGMLreverb-echo echo-del3 13.4367;
#X obj 94 119 LGMLreverb-echo echo-del4 21.5463;
#X obj 94 143 LGMLreverb-echo echo-del5 34.3876;
#X obj 94 167 LGMLreverb-echo echo-del6 55.5437;
#N canvas 0 22 450 300 gui 0;
#X obj 78 26 hsl 128 15 0 100 0 0 feedback empty feedback -2 -8 0 10
-262144 -1 -1 0 1;
#X obj 74 71 hsl 128 15 0 1 0 0 drywet empty drywet -2 -8 0 10 -262144
-1 -1 5600 1;
#X obj 84 129 hsl 128 15 0 1 0 0 predelay empty predelay -2 -8 0 10
-262144 -1 -1 0 1;
#X restore 873 123 pd gui;
#X obj 87 -20 adc~ 1;
#X obj 7 415 dac~ 1;
#X obj 668 409 r feedback;
#X obj 106 332 r drywet;
#X obj 202 228 r predelay;
#X obj 93 23 *~ 0.1666;
#X obj 7 333 LGMLdrywet;
#X obj 109 309 /~ 2;
#X obj 76 218 LGMLdrywet 1;
#X obj 70 250 LGMLdrywet 1, f 14;
#X connect 0 0 2 0;
#X connect 0 0 4 0;
#X connect 0 0 47 0;
#X connect 1 0 2 1;
#X connect 1 0 4 1;
#X connect 1 0 47 0;
#X connect 2 0 6 0;
#X connect 2 0 8 0;
#X connect 3 0 8 1;
#X connect 3 0 6 1;
#X connect 4 0 7 0;
#X connect 4 0 9 0;
#X connect 5 0 7 1;
#X connect 5 0 9 1;
#X connect 6 0 12 0;
#X connect 7 0 11 0;
#X connect 8 0 10 0;
#X connect 9 0 13 0;
#X connect 10 0 24 0;
#X connect 11 0 18 0;
#X connect 12 0 17 0;
#X connect 13 0 19 0;
#X connect 14 0 13 1;
#X connect 14 0 12 1;
#X connect 14 0 11 1;
#X connect 14 0 10 1;
#X connect 15 0 16 0;
#X connect 16 0 14 0;
#X connect 20 0 0 1;
#X connect 21 0 1 1;
#X connect 22 0 3 1;
#X connect 22 0 5 1;
#X connect 23 0 3 0;
#X connect 23 0 5 0;
#X connect 33 0 34 0;
#X connect 33 1 34 1;
#X connect 34 0 35 0;
#X connect 34 1 35 1;
#X connect 35 0 36 0;
#X connect 35 1 36 1;
#X connect 36 0 37 0;
#X connect 36 1 37 1;
#X connect 37 0 38 0;
#X connect 37 1 38 1;
#X connect 38 0 48 1;
#X connect 38 1 49 1;
#X connect 40 0 45 0;
#X connect 40 0 46 0;
#X connect 40 0 48 0;
#X connect 40 0 49 0;
#X connect 42 0 15 0;
#X connect 43 0 46 2;
#X connect 44 0 48 2;
#X connect 44 0 49 2;
#X connect 45 0 33 0;
#X connect 46 0 41 0;
#X connect 47 0 46 1;
#X connect 48 0 0 0;
#X connect 49 0 1 0;
