#N canvas 112 126 450 300 10;
#X obj 31 289 hip~ 5;
#X obj 117 64 fiddle~ 2048;
#X obj 118 95 unpack;
#X obj 111 199 osc~;
#X obj 118 119 moses 1;
#X obj 44 212 *~;
#X obj 145 147 mtof;
#X obj 145 170 *;
#X msg 194 125 0.5;
#X floatatom 194 154 3 0 0 0 - - -, f 3;
#X msg 232 125 15;
#N canvas 300 203 758 306 delay 0;
#X obj 15 222 outlet~;
#X obj 14 21 inlet~;
#X obj 15 102 loadbang;
#X obj 14 49 delwrite~ E03-del 40;
#X obj 15 195 delread~ E03-del;
#X obj 15 152 expr 1000*1024/$f1;
#X obj 15 128 samplerate~;
#X text 208 47 write to delay line which has enough memory to hold
40 msec;
#X text 125 128 get sample rate at load time;
#X text 185 152 divide 1024 by sample rate to give time in seconds
\; multiply by 1000 to convert to milliseconds.;
#X text 168 197 read from the delay line at the calculater delay;
#X text 317 268 1024-sample delay;
#X connect 1 0 3 0;
#X connect 2 0 6 0;
#X connect 4 0 0 0;
#X connect 5 0 4 0;
#X connect 6 0 5 0;
#X restore 31 71 pd delay;
#X text 242 4 OCTAVE DIVIDING VIA RING MODULATION;
#X obj 25 16 adc~ 1;
#X obj 280 138 r multiplier;
#X obj 33 263 LGMLdrywet;
#X obj 32 322 dac~ 1;
#N canvas 464 98 450 300 gui 0;
#X obj 12 68 hsl 128 15 1 16 0 0 multiplier empty multiplier -2 -8
0 10 -262144 -1 -1 800 1;
#X obj 7 102 tgl 15 0 upDown empty upDown 17 7 0 10 -262144 -1 -1 0
1;
#X obj 11 143 hsl 128 15 0 1 0 1 dryWet empty dryWet -2 -8 0 10 -262144
-1 -1 12700 1;
#X obj 14 185 hsl 128 15 0 1 0 1 sharpness empty sharpness -2 -8 0
10 -262144 -1 -1 12700 1;
#X restore 291 64 pd gui;
#X obj 245 178 expr if($f2>0 \, $f1 \, 1/$f1);
#X obj 401 127 r upDown;
#X obj 158 240 r dryWet;
#X obj 371 156 t b f;
#X obj 164 195 phasor~;
#X obj 110 225 LGMLdrywet;
#X obj 227 218 r sharpness;
#X obj 45 235 *~ 2;
#X connect 0 0 16 0;
#X connect 1 2 2 0;
#X connect 2 0 4 0;
#X connect 3 0 23 0;
#X connect 4 1 6 0;
#X connect 5 0 25 0;
#X connect 6 0 7 0;
#X connect 7 0 3 0;
#X connect 7 0 22 0;
#X connect 8 0 9 0;
#X connect 9 0 7 1;
#X connect 10 0 9 0;
#X connect 11 0 5 0;
#X connect 11 0 15 0;
#X connect 13 0 11 0;
#X connect 13 0 1 0;
#X connect 14 0 18 0;
#X connect 15 0 0 0;
#X connect 18 0 9 0;
#X connect 19 0 21 0;
#X connect 20 0 15 2;
#X connect 21 0 18 0;
#X connect 21 1 18 1;
#X connect 22 0 23 1;
#X connect 23 0 5 1;
#X connect 24 0 23 2;
#X connect 25 0 15 1;
